<?xml version="1.0" encoding="UTF-8"?>
<svg xmlns="http://www.w3.org/2000/svg" viewBox="0 0 100 100">
<!--
<clipPath id="clip"> 
<polygon points="0,35 30,35 30,40 5,40 5,55 25,55 25,35 30,35 30,65 0,65" />
<polygon points="35,35 65,35 65,40 40,40 40,55 60,55 60,35 65,35 65,65 35,65" />
<polygon points="70,35 100,35 100,40 75,40 75,55 95,55 95,35 100,35 100,65 70,65" />
</clipPath>
<rect x="0" y="0" width="100" height="100" fill="#ffffff" opacity="0.5" clip-path="url(#clip)" />
-->
<path d="
M0,35 30,35 30,40 5,40 5,55 25,55 25,35 30,35 30,65 0,65
M35,35 65,35 65,40 40,40 40,55 60,55 60,35 65,35 65,65 35,65
M70,35 100,35 100,40 75,40 75,55 95,55 95,35 100,35 100,65 70,65
" fill="#ffffff" opacity="0.5" />
</svg>
